<svg width="1280" height="2712" viewBox="0 0 1280 2712" fill="none" xmlns="http://www.w3.org/2000/svg">
<g clip-path="url(#clip0_27_4)">
<rect width="1280" height="2712" fill="black"/>
<g filter="url(#filter0_f_27_4)">
<path d="M1189.03 429.132C1142.41 383.134 1074.86 360.812 1022.18 413.583C977.949 476.672 1022.18 548.986 1119.72 622.842C1217.25 696.698 1290.85 712.246 1306.19 661.065C1321.53 609.884 1235.65 475.13 1189.03 429.132Z" fill="url(#paint0_linear_27_4)"/>
</g>
<g filter="url(#filter1_f_27_4)">
<ellipse cx="19.5" cy="1214" rx="121.5" ry="124" fill="url(#paint1_linear_27_4)"/>
</g>
<g filter="url(#filter2_f_27_4)">
<circle cx="1196.68" cy="2646.68" r="100" transform="rotate(-54 1196.68 2646.68)" fill="url(#paint2_linear_27_4)"/>
</g>
</g>
<defs>
<filter id="filter0_f_27_4" x="965" y="343" width="383" height="388" filterUnits="userSpaceOnUse" color-interpolation-filters="sRGB">
<feFlood flood-opacity="0" result="BackgroundImageFix"/>
<feBlend mode="normal" in="SourceGraphic" in2="BackgroundImageFix" result="shape"/>
<feGaussianBlur stdDeviation="20" result="effect1_foregroundBlur_27_4"/>
</filter>
<filter id="filter1_f_27_4" x="-142" y="1050" width="323" height="328" filterUnits="userSpaceOnUse" color-interpolation-filters="sRGB">
<feFlood flood-opacity="0" result="BackgroundImageFix"/>
<feBlend mode="normal" in="SourceGraphic" in2="BackgroundImageFix" result="shape"/>
<feGaussianBlur stdDeviation="20" result="effect1_foregroundBlur_27_4"/>
</filter>
<filter id="filter2_f_27_4" x="1056.67" y="2506.67" width="280.014" height="280.014" filterUnits="userSpaceOnUse" color-interpolation-filters="sRGB">
<feFlood flood-opacity="0" result="BackgroundImageFix"/>
<feBlend mode="normal" in="SourceGraphic" in2="BackgroundImageFix" result="shape"/>
<feGaussianBlur stdDeviation="20" result="effect1_foregroundBlur_27_4"/>
</filter>
<linearGradient id="paint0_linear_27_4" x1="999.479" y1="377.817" x2="1324.18" y2="673.643" gradientUnits="userSpaceOnUse">
<stop stop-color="#AC4C09"/>
<stop offset="1" stop-color="#542200" stop-opacity="0"/>
</linearGradient>
<linearGradient id="paint1_linear_27_4" x1="141" y1="1161" x2="-64" y2="1284" gradientUnits="userSpaceOnUse">
<stop stop-color="#F97316"/>
<stop offset="1" stop-color="#803400" stop-opacity="0"/>
</linearGradient>
<linearGradient id="paint2_linear_27_4" x1="1296.68" y1="2603.94" x2="1129.79" y2="2706.13" gradientUnits="userSpaceOnUse">
<stop stop-color="#F97316"/>
<stop offset="1" stop-color="#803400" stop-opacity="0"/>
</linearGradient>
<clipPath id="clip0_27_4">
<rect width="1280" height="2712" fill="white"/>
</clipPath>
</defs>
</svg>
